<?xml version="1.0" encoding="utf-8"?>
<!-- Generator: Adobe Illustrator 19.1.0, SVG Export Plug-In . SVG Version: 6.00 Build 0)  -->
<svg version="1.1" id="レイヤー_1" xmlns="http://www.w3.org/2000/svg" xmlns:xlink="http://www.w3.org/1999/xlink" x="0px"
	 y="0px" viewBox="0 0 1000 1000" style="enable-background:new 0 0 1000 1000;" xml:space="preserve">
<style type="text/css">
	.st0{fill:#B3B3B3;}
	.st1{fill:#394447;}
	.st2{fill:#28A596;}
	.st3{fill:#7D8889;}
	.st4{fill:#687173;}
	.st5{fill:#9BA9AA;}
	.st6{fill:#C2CBCC;}
	.st7{fill:#FFFFFF;}
</style>
<polygon class="st0" points="445.9,668.1 406.1,772.7 406.8,763.8 449.4,920.8 372.1,932.3 367.3,769.7 367.1,764.2 368,760.7 
	395.1,652.1 "/>
<polygon class="st0" points="574.7,645.5 611.3,753.5 613.4,759.7 611.9,766.8 576.5,938.6 508.6,918.2 573.7,755.3 574.3,768.5 
	525.3,665.6 "/>
<g>
	<polygon class="st1" points="445.9,668.1 432.9,702.4 386.2,687.7 395.1,652.1 	"/>
	<polygon class="st1" points="431.8,705.3 418.7,739.6 376.5,726.4 385.4,690.8 	"/>
	<polygon class="st1" points="417.6,742.6 406.1,772.7 406.8,763.8 407.9,768.1 367.4,774.1 367.3,769.7 367.1,764.2 368,760.7 
		375.8,729.4 	"/>
	<polygon class="st1" points="408.8,771.2 418.4,806.8 368.6,814.1 367.5,777.3 	"/>
	<polygon class="st1" points="419.2,809.8 428.9,845.4 369.8,854.2 368.7,817.3 	"/>
	<polygon class="st1" points="429.7,848.5 439.4,884 371,894.2 369.9,857.3 	"/>
	<polygon class="st1" points="440.2,887.1 449.4,920.8 372.1,932.3 371.1,897.4 	"/>
</g>
<g>
	<polygon class="st1" points="574.7,645.5 586.5,680.3 541,698.7 525.3,665.6 	"/>
	<polygon class="st1" points="587.5,683.3 599.2,718 558.2,734.7 542.4,701.5 	"/>
	<polygon class="st1" points="600.3,721 611.3,753.5 613.4,759.7 611.9,766.8 611.4,769.1 572.8,757.5 573.7,755.3 574.3,768.5 
		559.5,737.5 	"/>
	<polygon class="st1" points="610.8,772.2 603.4,808.2 558,794.5 571.6,760.4 	"/>
	<polygon class="st1" points="602.7,811.3 595.3,847.3 543.2,831.6 556.8,797.5 	"/>
	<polygon class="st1" points="594.7,850.4 587.2,886.4 528.4,868.7 542,834.6 	"/>
	<polygon class="st1" points="586.6,889.5 579.2,925.5 513.6,905.8 527.2,871.6 	"/>
	<polygon class="st1" points="578.5,928.6 576.5,938.6 508.6,918.2 512.4,908.7 	"/>
</g>
<ellipse class="st2" cx="487.4" cy="633.9" rx="140.4" ry="46.3"/>
<ellipse class="st2" cx="387.3" cy="770.3" rx="30.4" ry="21.6"/>
<ellipse class="st2" cx="592" cy="763.3" rx="30.4" ry="21.6"/>
<path class="st3" d="M634.9,633c0,0-47.3,25-147.5,25s-150.2-16.9-150.2-16.9s-9.1-70-2.3-125.2c6.7-55,58.6-191.5,58.6-191.5
	s46.9-6.7,94.4-6.7s90.7,6.7,90.7,6.7s51,126.3,60.9,189.3C650.1,580.7,634.9,633,634.9,633z"/>
<g>
	<path class="st2" d="M458,925H295.4c0-42,36.4-73.2,81.3-73.2S458,883,458,925z"/>
	<rect x="295.4" y="924.6" class="st1" width="162.7" height="15.2"/>
</g>
<g>
	<path class="st2" d="M663,925H500.4c0-42,36.4-73.2,81.3-73.2S663,883,663,925z"/>
	<rect x="500.2" y="924.6" class="st1" width="162.7" height="15.2"/>
</g>
<path class="st4" d="M589.4,361.7c0,0-39.8-9.6-101.8-9.6S384.7,360,384.7,360l10.1-33.5c0,0,48.5-7.3,91.3-7.3s91.7,7.3,91.7,7.3
	L589.4,361.7z"/>
<path class="st1" d="M525.4,299.6l-72.7,5.5L458,331h0c0,0,0,0.4,0,0.5c0,7.2,13.8,13.1,30.8,13.1c17,0,30.8-5.9,30.8-13.1
	c0-0.1,0-0.4,0-0.4h0L525.4,299.6z"/>
<path class="st2" d="M360.3,400c5.7,1,9.3-2,10.2-6.8c0,0,19.5-58.8,23-68.8c-4.8-8.9-27.5-13.2-38.9-10.8
	c-23.3,5-17.8,19.3-11.3,41.3C348.3,372,355.6,399.2,360.3,400z"/>
<path class="st2" d="M612.6,400c-5.7,1-9.3-2-10.2-6.8c0,0-19.5-58.8-23-68.8c4.8-8.9,27.5-13.2,38.9-10.8
	c23.3,5,17.8,19.3,11.3,41.3C624.6,372,617.3,399.2,612.6,400z"/>
<path class="st3" d="M638,204c0,66.3-66,111-147.5,111S343,270.3,343,204S409,75,490.5,75S638,137.7,638,204z"/>
<ellipse class="st5" cx="490" cy="235.3" rx="122.3" ry="74"/>
<g>
	<ellipse class="st6" cx="433.6" cy="225.3" rx="24" ry="21.3"/>
	<ellipse class="st2" cx="434" cy="226.5" rx="19.3" ry="17.2"/>
	<ellipse class="st7" cx="426.7" cy="220.9" rx="5" ry="4.4"/>
	<ellipse class="st7" cx="436.7" cy="224.5" rx="3" ry="2.7"/>
</g>
<g>
	<ellipse class="st6" cx="543.6" cy="225.3" rx="24" ry="21.3"/>
	<ellipse class="st2" cx="544" cy="226.5" rx="19.3" ry="17.2"/>
	<ellipse class="st7" cx="536.7" cy="220.9" rx="5" ry="4.4"/>
	<ellipse class="st7" cx="546.7" cy="224.5" rx="3" ry="2.7"/>
</g>
<path class="st0" d="M352,380.5c-3.3,1-6.4,2.9-9.3,4.8c-3.9,2.7-7.6,5.7-11.1,8.9c-7.2,6.7-13.6,14.2-19,22.5
	c-11.6,17.6-18.1,38.6-16.4,59.8c0.9,11.4,4.2,22.2,8.8,32.7c-0.3-0.8-0.1-0.2-0.1-0.3c7.3,14.8,20.9,25.2,35,33.1
	c19.8,11,41.8,18,63.8,22.8c5.6,1.2,11.3,2.3,17,3.2c4.8,0.8,9.6,1.3,14.4,2.1c-1,6.2-2.1,12.4-3.1,18.5c-1.6,9.8-3.3,19.6-4.9,29.4
	c-0.4,2.2-0.8,4.5-1.1,6.7c-2.4-0.8-4.9-1.3-7.3-2c-3.1-0.9-6.2-1.8-9.3-2.7c-5.2-1.6-10.4-3.2-15.5-5c-13.7-4.6-27.1-9.9-40.2-16
	c-13.6-6.3-26.9-13.6-39.2-22.2c-11.5-8.1-22.2-17.4-31-28.5c-5-6.4-9.3-13.3-12.6-20.7c-4.5-10.1-7.5-21-9.3-31.9
	c-2.4-14.8-2.3-30.1,0.5-44.9c2.8-14.5,8.1-28.5,15.4-41.3c7-12.4,15.7-23.8,25.7-33.9c9.3-9.4,19.9-18.3,31.9-24.1
	c2.3-1.1,4.6-2,7-2.8L352,380.5z"/>
<path class="st0" d="M631,348.9c12.2,4,22.6,12.8,31.7,21.7c9.9,9.6,18.6,20.6,25.9,32.3c7.7,12.3,14,25.6,18.2,39.5
	c4.3,14.1,6.4,28.6,6.2,43.3c-0.2,14.2-2.8,28.3-7.3,41.7c-1.9,5.5-4.1,11-6.8,16.2c-6.8,12.7-16.3,23.8-26.9,33.4
	c-11,10-23.4,18.4-36.2,25.9c-12.5,7.3-25.6,13.6-38.9,19.2c-12,5.1-24.3,9.7-36.8,13.7c-2.2,0.7-4.5,1.5-6.8,2
	c-1.3-6.1-2.6-12.3-3.9-18.4c-2.1-9.7-4.1-19.5-6.2-29.2c-0.5-2.2-0.9-4.5-1.4-6.7c1.7-0.1,3.4-0.5,5.1-0.7c2.2-0.4,4.5-0.8,6.7-1.2
	c4.6-0.9,9.1-1.9,13.7-3c10-2.5,20-5.5,29.7-9c10-3.6,19.9-7.9,29.3-13c9.3-5,18.3-10.9,26.1-18.1c6.3-5.8,11.7-12.5,15.4-20.2
	c0.2-0.4-0.2,0.4-0.1,0.3c3.3-7.5,5.9-15.2,7.4-23.3c2.2-11.4,2.1-23.2,0-34.7c-3.9-21.9-14.6-42.5-29-59.2
	c-3.9-4.5-8-8.7-12.5-12.6c-3.6-3.1-7.5-6.1-11.8-8c0,0,0,0,0,0l0,0c0,0,0,0,0,0c-0.4-0.1-0.7-0.2-1.1-0.3L631,348.9z"/>
<g>
	<path class="st1" d="M351.9,380.5c-3.2,1-6.2,2.8-9,4.7c-6.1-9.1-12.2-18.3-18.4-27.4c5.5-3.7,11.3-7,17.6-8.9L351.9,380.5z"/>
	<path class="st1" d="M341,386.5c-6.8,4.9-13,10.8-18.5,17.1c-8.3-7.3-16.6-14.7-24.9-22c7.2-8,15.2-15.4,24-21.8L341,386.5z"/>
	<path class="st1" d="M320.9,405.4c-5.4,6.5-10.2,13.6-14.1,21.1c-10-5.4-20-10.7-29.9-16.1c5.2-9.4,11.5-18.3,18.5-26.4
		L320.9,405.4z"/>
	<path class="st1" d="M305.8,428.7c-3.6,7.4-6.4,15.3-8,23.3c-11.4-2.6-22.8-5.3-34.3-7.9c2.7-10.7,6.7-21,11.8-30.7L305.8,428.7z"
		/>
	<path class="st1" d="M297.3,454.3c-1.4,7.9-1.8,16.1-0.9,24.1c-12.2,0.8-24.3,1.7-36.5,2.5c-0.5-11.2,0.4-22.4,2.8-33.4
		L297.3,454.3z"/>
	<path class="st1" d="M296.6,480.6c1,8,3.2,15.9,6.2,23.5c-12,4.3-24.1,8.7-36.1,13c-3.5-10.6-5.8-21.6-6.6-32.7L296.6,480.6z"/>
	<path class="st1" d="M303.7,506.1c0.5,1.1,1,2.2,1.4,3.3c-0.1-0.2,0.2,0.5-0.2-0.5c2.6,5.7,6.6,10.8,11,15.3
		c-10.1,9-20.2,18-30.3,27.1c-7.7-9.2-13.7-19.5-17.7-30.8L303.7,506.1z"/>
	<path class="st1" d="M317.4,525.7c5.8,5.6,12.5,10.3,19.4,14.4c-7.9,12-15.8,24-23.7,36c-9.1-6.5-17.7-13.7-25.1-22.1L317.4,525.7z
		"/>
	<path class="st1" d="M338.9,541.3c7.5,4.3,15.4,7.9,23.5,11c-6.3,14-12.7,27.9-19,41.9c-9.5-4.8-18.7-10.1-27.4-16.1L338.9,541.3z"
		/>
	<path class="st1" d="M364.7,553.2c8.3,3.2,16.9,5.8,25.5,8.2c-5.2,15.6-10.4,31.2-15.5,46.7c-9.6-3.8-19.1-7.9-28.4-12.5
		L364.7,553.2z"/>
	<path class="st1" d="M392.7,562.1c8.7,2.3,17.6,4.1,26.4,5.6c-4.1,17.2-8.3,34.4-12.4,51.6c-9.8-3-19.5-6.4-29.1-10L392.7,562.1z"
		/>
	<path class="st1" d="M421.8,568.1c4.4,0.7,8.9,0.9,13.3,1.7c-3.1,18.3-6.1,36.5-9.2,54.8c-5.4-1.2-10.8-2.8-16.1-4.4L421.8,568.1z"
		/>
</g>
<g>
	<path class="st1" d="M484.4,616c-3.4,7-14.5,7.9-21.4,8.8c-7,0.9-14.2,0.9-21.2,0.3c-7-0.6-14.9-1.8-21-5.4
		c-6.3-3.8-7.6-12.9-1.6-17.7c5.8-4.6,11-0.7,17,0.8c5.8,1.4,12,1.7,18,1.4c3.8-0.2,7.5-0.5,11.2-1.3c2.9-0.6,5.8-1.9,8.8-2.1
		C482.1,600.3,487.9,608.8,484.4,616z"/>
	<path class="st1" d="M467.7,645.8c-4.7,6.2-15.7,5-22.6,4.6c-7.1-0.5-14.1-1.8-20.9-3.8c-6.7-1.9-14.3-4.5-19.6-9.3
		c-5.5-5-5-14.1,1.8-17.7c6.5-3.4,10.9,1.4,16.5,4c5.4,2.5,11.5,3.9,17.4,4.8c3.7,0.6,7.5,0.9,11.3,0.9c3,0,6.1-0.8,9-0.4
		C468.5,629.9,472.5,639.4,467.7,645.8z"/>
	<path class="st1" d="M484.1,590.2c-3.4,7-14.5,7.9-21.4,8.8c-7,0.9-14.2,0.9-21.2,0.3c-7-0.6-14.9-1.8-21-5.4
		c-6.3-3.8-7.6-12.9-1.6-17.7c5.8-4.6,11-0.7,17,0.8c5.8,1.4,12,1.7,18,1.4c3.8-0.2,7.5-0.5,11.2-1.3c2.9-0.6,5.8-1.9,8.8-2.1
		C481.8,574.5,487.6,583,484.1,590.2z"/>
	<path class="st1" d="M471.7,559.6c-5.4,6.8-11.4,2.9-18.1,2c-6.3-0.9-13.3,0.7-18.7,4.2c-5.4,3.5-6.7,10.8-13.4,12.4
		c-7,1.6-13.9-4-13.7-11.2c0.2-7.6,7.6-14.8,13.4-18.9c6.5-4.6,14.2-7.4,22.1-8.6c7.5-1.1,15.5-0.5,22.6,2.3
		C473.1,544.6,477,552.9,471.7,559.6z"/>
	<path class="st2" d="M407.9,640.9c-16.5-1.5-27.3-22.5-24.1-46.8c3.2-24.3,19.1-42.8,35.5-41.3s27.3,22.5,24.1,46.8
		C440.3,623.9,424.4,642.4,407.9,640.9z"/>
</g>
<g>
	<path class="st1" d="M630.8,348.8c6.5,2,12.5,5.7,18,9.8c-4.4,5.9-8.8,11.9-13.1,17.8c-1.1,1.5-4.2,7.7-6,8.2c-1.9,0.5-5.7-3.1-8-4
		c0,0,0.1,0,0.1,0c-0.4-0.1-0.6-0.2-0.6-0.2L630.8,348.8z"/>
	<path class="st1" d="M651.6,360.8c8.6,6.8,16.3,14.6,23.2,23.1c-8.6,7-17.2,14-25.7,21c-5.4-6.7-11.4-13-18.1-18.3L651.6,360.8z"/>
	<path class="st1" d="M677,386.4c6.7,8.4,12.7,17.5,17.8,26.9c-10,5.2-20.1,10.4-30.1,15.6c-3.9-7.8-8.7-15.2-13.9-22.2L677,386.4z"
		/>
	<path class="st1" d="M696.3,416.4c5,9.7,9,20,11.9,30.6c-11.3,2.9-22.6,5.7-33.9,8.6c-1.9-8.4-4.9-16.5-8.5-24.2L696.3,416.4z"/>
	<path class="st1" d="M709,450.3c2.7,10.9,4.1,22,4.1,33.2c-12.1-0.3-24.3-0.5-36.4-0.8c0.4-8.3-0.3-16.7-2-24.9L709,450.3z"/>
	<path class="st1" d="M713,487c-0.3,11.3-2,22.5-5.1,33.4c-12.1-3.8-24.3-7.5-36.4-11.3c2.7-7.8,4.4-15.9,5-24.1L713,487z"/>
	<path class="st1" d="M707,523.7c-3.6,11.4-8.5,22.2-15.6,32c-10.6-8.2-21.3-16.4-31.9-24.5c3.3-3.9,6.3-8.2,8.4-12.8
		c-0.1,0.3,0,0.1-0.1,0.2c1.1-2.3,2-4.7,2.9-7.1L707,523.7z"/>
	<path class="st1" d="M689.1,558.7c-6.9,9-15.2,17-24,24.1c-8.6-11.4-17.1-22.8-25.7-34.2c6.8-4.6,13.2-9.7,18.6-15.8L689.1,558.7z"
		/>
	<path class="st1" d="M662.4,585c-8.5,6.7-17.6,12.6-26.9,18c-7-13.5-14.1-27-21.1-40.6c8-3.6,15.7-7.7,23-12.5L662.4,585z"/>
	<path class="st1" d="M632.7,604.6c-9.1,5.2-18.6,9.9-28.2,14.2c-5.9-15.3-11.8-30.5-17.7-45.8c8.6-2.8,17.1-5.9,25.3-9.5
		L632.7,604.6z"/>
	<path class="st1" d="M601.5,620.1c-9.6,4.2-19.3,8-29.1,11.6c-4.9-17-9.8-34-14.7-51c8.9-1.9,17.8-4.2,26.5-6.9L601.5,620.1z"/>
	<path class="st1" d="M569.3,632.7c-5.3,1.8-10.5,3.7-15.9,5.1c-3.8-18.1-7.7-36.3-11.5-54.4c4.3-1,8.8-1.3,13.1-2.2L569.3,632.7z"
		/>
</g>
<g>
	<path class="st1" d="M488.3,614.6c2.9,7.2,13.9,8.9,20.7,10.2c7,1.3,14.1,1.9,21.2,1.7c7-0.2,15-0.7,21.3-4
		c6.6-3.4,8.5-12.3,2.8-17.5c-5.4-5-10.9-1.4-17-0.4c-5.9,1-12.1,0.8-18,0.2c-3.7-0.4-7.5-1-11.1-2c-2.9-0.8-5.7-2.3-8.6-2.7
		C491.7,599,485.3,607.2,488.3,614.6z"/>
	<path class="st1" d="M502.9,645.5c4.2,6.5,15.3,6.1,22.3,6.1c7.1,0,14.2-0.8,21.1-2.3c6.8-1.5,14.6-3.6,20.2-8
		c5.8-4.6,6-13.7-0.6-17.7c-6.3-3.9-11,0.7-16.7,2.8c-5.6,2.1-11.7,3.1-17.7,3.6c-3.8,0.3-7.5,0.4-11.3,0.1c-3-0.2-6-1.2-9-1
		C503.3,629.5,498.6,638.7,502.9,645.5z"/>
	<path class="st1" d="M490.3,588.9c2.9,7.2,13.9,8.9,20.7,10.2c7,1.3,14.1,1.9,21.2,1.7c7-0.2,15-0.7,21.3-4
		c6.6-3.4,8.5-12.3,2.8-17.5c-5.4-5-10.9-1.4-17-0.4c-5.9,1-12.1,0.8-18,0.2c-3.7-0.4-7.5-1-11.1-2c-2.9-0.8-5.7-2.3-8.6-2.7
		C493.7,573.3,487.4,581.4,490.3,588.9z"/>
	<path class="st1" d="M504.8,559.2c4.9,7.2,11.2,3.7,17.9,3.2c6.4-0.5,13.2,1.6,18.3,5.4c5.1,3.9,6,11.2,12.6,13.2
		c6.9,2.1,14.2-3.1,14.5-10.3c0.3-7.6-6.6-15.2-12.1-19.8c-6.2-5-13.7-8.4-21.4-10c-7.4-1.6-15.4-1.5-22.7,0.8
		C504.4,544.1,500,552.2,504.8,559.2z"/>
	<path class="st2" d="M562.9,644.6c16.5-0.4,28.7-20.6,27.2-45.1s-16.1-44-32.6-43.6s-28.7,20.6-27.2,45.1
		C531.8,625.5,546.4,645,562.9,644.6z"/>
</g>
</svg>
