<?xml version="1.0" encoding="utf-8"?>
<svg version="1.1" xmlns="http://www.w3.org/2000/svg" xmlns:xlink="http://www.w3.org/1999/xlink" x="0px" y="0px"
	 viewBox="0 0 1000 1000" style="enable-background:new 0 0 1000 1000;" xml:space="preserve">
<style type="text/css">
	.st0{fill:#B3B3B3;}
	.st1{fill:#394447;}
	.st2{fill:#727E80;}
	.st3{fill:#687173;}
	.st4{fill:#626C6E;}
	.st5{fill:#879496;}
</style>
<g>
	<path class="st0" d="M644.2,349.1c32.6,5.3,72,7.8,101.6-9.4c-0.2,0.1-0.3,0.2-0.5,0.3c21.1-11.7,27.9-42.1,31.5-63.8
		c5.1-30.4,5.4-62.4,2-93c21.1-1.9,42.2-3.8,63.2-5.8c2,29.7,0.2,60.2-4.9,89.6c-5.9,33.7-16.7,69.2-40.5,94.7
		c-36.1,38.8-95.1,37.6-142.6,24c-2.5-0.7-17.5-3.6-18.8-6.3c-0.6-1.3,1.5-5.6,1.9-7C639.5,364.7,641.8,356.9,644.2,349.1z"/>
	<polygon class="st0" points="452.4,630.4 406.7,750.4 407.5,740.2 456.3,920.2 367.7,933.4 362.2,746.9 362,740.6 363,736.6
		394.1,612.1 	"/>
	<polygon class="st0" points="589.7,612.6 631.6,736.4 634,743.5 632.3,751.6 591.7,948.6 513.9,925.2 588.5,738.4 589.2,753.6
		533,635.5 	"/>
	<path class="st0" d="M351.4,375.2c-18.6,25.1-35.1,52-49.1,79.9c-14.8,29.5-27.6,61.2-31.2,94.3c-2.3,15.8-0.9,36.4,2.1,53.4
		c3.1,17.9,7.8,39.7,17.7,55.3c-0.7-1.1-49.7,24-55.1,26.6c-11.5-24.2-16.5-53.2-18.5-79.8c-1.7-22.7-0.7-45.9,4.2-68.1
		c14-63.7,53.4-122.1,94.7-171.4c1.5-1.8,7.6-11.2,9.9-11.3c1.4-0.1,6,5,7.1,5.9C339.3,365,345.4,370.1,351.4,375.2z"/>
	<g>
		<path class="st1" d="M644.2,349.1c11.6,3.7,26.5,3.2,38.5,3.5c-1.3,12.9-2.6,25.9-3.8,38.8c-8.8-1.6-17.6-3.5-26.2-6
			c-4.3-1.3-16.9-3.3-17.2-7.6c-0.3-4.4,3.6-11.7,4.8-15.9C641.6,357.6,642.9,353.4,644.2,349.1z"/>
		<path class="st1" d="M685.9,352.6c12.3,0.1,24.8-0.9,36.7-3.8c2.4,14.9,4.9,29.7,7.3,44.6c-10.8,1.2-21.8,1.2-32.6,0.4
			c-2.6-0.2-12.8,0.2-14.4-1.7c-0.4-0.5,0.3-3.8,0.3-4.4C684.1,376,685,364.3,685.9,352.6z"/>
		<path class="st1" d="M725.3,348.1c7.2-1.8,14.3-5.2,20.4-8.4c2.4-1.4,4.6-3.2,6.6-5.1c10.5,12.9,21,25.8,31.5,38.7
			c-9.8,7.3-20.7,12.4-32.4,15.8c-2.6,0.8-14.1,5.1-16.8,3.6c-0.8-0.4-0.9-3.4-1.1-4.4C730.7,374.9,728,361.5,725.3,348.1z"/>
		<path class="st1" d="M753.6,333.4c7.4-7.1,12.1-17.3,15.6-26.8c16.6,7.1,33.2,14.1,49.8,21.2c-6,12.6-13.4,24.5-22.9,34.6
			c-1,1-6.2,7.8-8.1,7.6c-0.8-0.1-3.1-3.3-3.6-3.8C774.1,355.3,763.8,344.3,753.6,333.4z"/>
		<path class="st1" d="M770.1,304c4-11.4,6.3-23.6,7.9-35.6c19,3.3,38,6.7,57,10c-2.9,13.9-6.8,27.6-12.2,40.7
			c-1.2,3-0.9,3.9-3.2,4.1c-2,0.2-6.3-2.5-8.2-3.2C797.6,314.6,783.8,309.3,770.1,304z"/>
		<path class="st1" d="M778.3,265.3c1.6-12.8,2.1-25.7,2.3-38.5c20.3,0.8,40.6,1.7,61,2.5c-0.4,6.6-1.1,13.2-1.9,19.7
			c-0.5,4.1-1.1,8.3-1.7,12.4c-0.4,2.8-0.3,9-1.9,11.1c-1.8,2.4,0.3,1.1-3.2,1.3c-3.1,0.2-7-1.1-10.1-1.6
			C808,269.9,793.2,267.6,778.3,265.3z"/>
		<path class="st1" d="M780.8,223.5c0.2-12.9-0.6-26-1.9-38.8c21.1-1.5,42.2-3.1,63.3-4.6c0.8,15.1-0.1,30.1-0.3,45.2
			C821.6,224.7,801.2,224.1,780.8,223.5z"/>
	</g>
	<path class="st1" d="M798,168.2c-11.6,0-14.3-10.2-13.2-19.5c0.9-8.1-0.7-16.6-2.8-24.5c-2.1-7.8-5.1-15.4-9.2-22.4
		c-4.9-8.1-4.5-19.1,6.1-22.7c19-6.5,27.5,27.4,30.8,40.1C812.8,131.8,819.9,168.2,798,168.2z"/>
	<path class="st1" d="M784.4,187.4c-19.9,0-38-14-47.1-31.1c-3.8-7.2-8.3-18.7-5.3-26.9c3.1-8.5,13.7-11.8,21.1-6.7
		c6.9,4.8,5.2,13.1,8.6,19.9c3.5,7,10.3,13.9,18,16.1c4.3,1.2,8.7,0.1,12.9,2.1c3.8,1.9,6.7,5.5,7.6,9.6
		C802.4,180.6,793.8,187.4,784.4,187.4z"/>
	<path class="st1" d="M819.1,173.9c-8.9,0-15.7-8.6-13.6-17.2c1.6-6.8,7.5-13,10-19.8c4.7-13.2,6.4-28.1,4.5-42
		c-0.9-7-2.2-13.5,4.1-18.5c6.5-5.3,16.3-3.6,20.7,3.5c3.9,6.4,3.7,16.7,3.9,23.9c0.1,7.9-0.4,15.8-1.8,23.5
		c-1.6,9.1-4.1,18-7.9,26.4C835.1,162,829.8,173.9,819.1,173.9z"/>
	<path class="st1" d="M826.9,189.9c-9.6,0-16.4-9.9-13.2-18.8c2.9-7.9,12.7-10.2,19.1-14.5c13.2-8.8,23.4-21.2,29.1-36.1
		c2.6-6.6,2.9-16.5,8.5-21.3c6.8-5.9,17.8-3.6,21.7,4.5c3.8,7.7-1.1,18.9-3.9,26.3c-3.1,8.3-7.3,16.2-12.5,23.4
		c-5.8,8.2-12.9,15.4-20.8,21.6C848,180.6,836.3,189.9,826.9,189.9z"/>
	<ellipse class="st2" cx="808.9" cy="173.2" rx="44.6" ry="29.8"/>
	<ellipse class="st3" cx="617.4" cy="356.9" rx="44.4" ry="40"/>
	<g>
		<polygon class="st1" points="452.4,630.4 437.4,669.8 383.9,652.9 394.1,612.1 		"/>
		<polygon class="st1" points="436.1,673.1 421.1,712.4 372.8,697.3 383,656.4 		"/>
		<polygon class="st1" points="419.9,715.8 406.7,750.4 407.5,740.2 408.8,745.1 362.3,752 362.2,746.9 362,740.6 363,736.6
			371.9,700.8 		"/>
		<polygon class="st1" points="409.8,748.6 420.8,789.4 363.7,797.9 362.4,755.6 		"/>
		<polygon class="st1" points="421.8,792.9 432.9,833.7 365.1,843.8 363.8,801.5 		"/>
		<polygon class="st1" points="433.8,837.2 444.9,878 366.4,889.7 365.2,847.4 		"/>
		<polygon class="st1" points="445.8,881.5 456.3,920.2 367.7,933.4 366.5,893.3 		"/>
	</g>
	<g>
		<polygon class="st1" points="589.7,612.6 603.2,652.4 551.1,673.5 533,635.5 		"/>
		<polygon class="st1" points="604.4,655.8 617.9,695.7 570.7,714.8 552.7,676.8 		"/>
		<polygon class="st1" points="619,699.1 631.6,736.4 634,743.5 632.3,751.6 631.8,754.2 587.5,740.9 588.5,738.4 589.2,753.6
			572.3,718 		"/>
		<polygon class="st1" points="631.1,757.8 622.6,799.1 570.5,783.4 586.2,744.3 		"/>
		<polygon class="st1" points="621.8,802.6 613.3,843.9 553.6,825.9 569.2,786.8 		"/>
		<polygon class="st1" points="612.6,847.4 604.1,888.7 536.6,868.5 552.2,829.3 		"/>
		<polygon class="st1" points="603.3,892.3 594.8,933.6 519.6,911 535.2,871.8 		"/>
		<polygon class="st1" points="594.1,937.1 591.7,948.6 513.9,925.2 518.3,914.3 		"/>
	</g>
	<ellipse class="st4" cx="487.4" cy="604.9" rx="140.4" ry="46.3"/>
	<g>
		<path class="st1" d="M351.4,375.2c-8.1,10.8-15.6,22.1-22.8,33.5c-10.1-7-20.1-14-30.2-21c5.7-7.4,11.5-14.8,17.5-21.9
			c1.3-1.6,7.7-11.2,9.8-11.4c1.1-0.1,1.3,0.7,2.6,1.5C336.6,360.7,344.1,369,351.4,375.2z"/>
		<path class="st1" d="M326.8,411.6c-7.1,11.6-13.9,23.3-20.2,35.3c-11.7-6.9-23.5-13.8-35.2-20.6c5.6-8.7,11.5-17.3,17.6-25.8
			c1.3-1.8,5.2-9.4,7.3-9.7c0.7-0.1,3.2,2.2,3.7,2.6C309,399.4,317.9,405.5,326.8,411.6z"/>
		<path class="st1" d="M305,449.9c-6.1,11.9-11.7,24-16.8,36.4c-13.6-6.2-27.2-12.5-40.8-18.7c5.7-11,11.8-21.8,18.3-32.4
			c4.1-6.6,3.2-6,9.5-2.4C285.1,438.5,295,444.2,305,449.9z"/>
		<path class="st1" d="M287,489.4c-4.7,12-8.8,24.4-11.8,37c-15.7-4.5-31.3-9.1-47-13.6c3.8-11.4,8.4-22.6,13.5-33.5
			c4.1-8.7,2.8-8.7,10.7-5.2C263.9,479.2,275.4,484.3,287,489.4z"/>
		<path class="st1" d="M274.5,529.4c-2.7,12-4.1,24.2-4.3,36.5c-17.5-1-35.1-2-52.6-3.1c1-11.2,2.9-22.4,5.7-33.3
			c0.7-2.8,1.8-11.8,4-12.8c1-0.5,5.6,1.5,6.5,1.8C247.3,522.1,260.9,525.8,274.5,529.4z"/>
		<path class="st1" d="M270.2,568.9c-0.1,12.4,1.3,24.8,3.6,36.9c-18.5,2.7-37.1,5.4-55.6,8.1c-1.5-13.9-2-28-1.2-42
			c0.1-2.5-0.3-3.9,1.4-4.8c1.6-0.9,6.7,0.2,8.5,0.3C241.2,567.9,255.7,568.4,270.2,568.9z"/>
		<path class="st1" d="M274.4,608.8c2.5,12.2,6,24.2,10.5,35.7c-18.8,6.4-37.7,12.8-56.5,19.2c-4.1-13.6-7.3-27.6-9.2-41.7
			c-0.6-4.3-1.1-3,1.6-4.3c2.5-1.2,6.8-1.1,9.5-1.6C245,613.7,259.7,611.2,274.4,608.8z"/>
		<path class="st1" d="M286,647.3c1.2,3.1,4.8,7.7,5,10.9c-0.4-0.7-49.8,24-55.1,26.6c-1.2-2.6-7.6-14.6-6.3-17
			c0.3-0.6,2.8-0.9,3.3-1.2c5.9-2.8,12.5-4.5,18.6-6.8C263.1,655.6,274.5,651.5,286,647.3z"/>
	</g>
	<ellipse class="st3" cx="353" cy="355.9" rx="44.4" ry="40"/>
	<path class="st2" d="M462.4,943H259.1c0-52,45.5-91.5,101.7-91.5S462.4,891,462.4,943z"/>
	<path class="st2" d="M714.4,943H511.1c0-52,45.5-91.5,101.7-91.5S714.4,891,714.4,943z"/>
	<path class="st1" d="M302.3,757.9c-10.2,0-17.7-12.6-22.6-20.3c-5-7.8-9.2-16.2-12.5-25c-3.2-8.6-6.4-18.6-5.6-27.9
		c0.9-9.7,10.9-16.4,20-12c8.7,4.2,7.1,12.6,8.8,20.5c1.7,7.7,4.9,15.2,8.6,22.1c2.3,4.4,4.9,8.6,7.9,12.6c2.4,3.1,5.6,5.8,7.5,9.2
		C319.6,746.1,312.9,757.9,302.3,757.9z"/>
	<path class="st1" d="M331.5,710.6c-10.8,0-11.7-8.9-16-16.2c-4-6.9-11-12.5-18.5-15.1c-7.6-2.6-15.8,1.8-22.5-3.6
		c-7-5.6-6.9-16.8,0.4-22.2c7.7-5.7,20.4-4,29-1.4c9.5,2.8,18.3,8.2,25.5,15.1c6.9,6.6,12.5,14.8,15.2,23.9
		C347.3,700.3,342.2,710.6,331.5,710.6z"/>
	<path class="st1" d="M254.6,770.9c-16.5,0-19.3-27-20.8-39.1c-1.9-16-1.1-32.8,4.4-48c2.8-7.8,7.4-15.6,17-14.6
		c8.4,0.9,13.9,9.1,12,17.2c-1.7,7.3-5,13.5-5.9,21.2c-0.8,7.3-0.6,14.6,0.4,21.9c1,8,3.7,15,6,22.6
		C270.5,761.1,264.5,770.9,254.6,770.9z"/>
	<path class="st1" d="M204.1,756c-20.6,0-13.6-30.1-10.3-42c4.9-17.7,14.5-33.5,27.9-46.2c6-5.6,14-14.2,22.9-13.2
		c9,1.1,14.6,10.5,11.4,19c-2.9,7.5-13,12.1-18.5,18c-5.1,5.4-9.4,11.6-12.5,18.4c-3.8,8.2-5.9,17-6.6,25.9
		C217.6,745.3,216.2,756,204.1,756z"/>
	<path class="st2" d="M217.4,675.5c-3.2-16.2,13.8-32.5,38-36.5s46.5,6,49.7,22.2c3.2,16.2-13.8,32.5-38,36.5
		S220.6,691.7,217.4,675.5z"/>
	<ellipse class="st2" cx="385.2" cy="747.6" rx="34.8" ry="24.8"/>
	<ellipse class="st2" cx="609.6" cy="747.6" rx="34.8" ry="24.8"/>
	<path class="st2" d="M634.9,603.7c0,0-47.3,25-147.5,25s-150.2-28.2-150.2-28.2s-9.1-63.3-2.3-118.6c6.7-55,58.6-157.5,58.6-157.5
		s46.9-6.7,94.4-6.7s90.7,6.7,90.7,6.7s51,92.3,60.9,155.3C650.1,546.7,634.9,603.7,634.9,603.7z"/>
	<rect x="259.1" y="942.9" class="st1" width="203.3" height="19"/>
	<rect x="510.9" y="942.9" class="st1" width="203.3" height="19"/>
	<path class="st3" d="M595.6,361.7c0,0-46-9.6-108-9.6s-108,7.9-108,7.9l15.2-33.5c0,0,48.5-7.3,91.3-7.3s91.7,7.3,91.7,7.3
		L595.6,361.7z"/>
	<path class="st1" d="M525.4,299.6l-72.7,5.5L458,331h0c0,0,0,0.4,0,0.5c0,7.2,13.8,13.1,30.8,13.1c17,0,30.8-5.9,30.8-13.1
		c0-0.1,0-0.4,0-0.4h0L525.4,299.6z"/>
	<path class="st2" d="M623.8,279.1c0,0-29.6,18.5-126.8,26.7s-135.5-4.5-135.5-4.5s-22.6-22.7-32.1-68.8c-11.3-54.7-0.2-99-0.2-99
		l142.1-45.2l156.1,20c0,0,16.3,44.1,13,95C636.9,256.2,623.8,279.1,623.8,279.1z"/>
	<path class="st5" d="M597.7,73.6c0,0-45.2-17.3-122.1-10.8S352.7,94.3,352.7,94.3l-23.5,39.2c0,0,78.9-19,150.3-25
		c71.3-6,147.9-0.2,147.9-0.2L597.7,73.6z"/>
</g>
</svg>
